<?xml version="1.0" standalone="no"?>
<!DOCTYPE svg PUBLIC "-//W3C//DTD SVG 20010904//EN"
 "http://www.w3.org/TR/2001/REC-SVG-20010904/DTD/svg10.dtd">
<svg version="1.0" xmlns="http://www.w3.org/2000/svg"
 width="512.000000pt" height="512.000000pt" viewBox="0 0 512.000000 512.000000"
 preserveAspectRatio="xMidYMid meet">
<metadata>
Created by potrace 1.11, written by Peter Selinger 2001-2013
</metadata>
<g transform="translate(0.000000,512.000000) scale(0.100000,-0.100000)"
fill="#000000" stroke="none">
<path d="M275 5066 c-95 -30 -158 -86 -200 -177 l-25 -56 2 -2289 3 -2289 22
-41 c46 -85 99 -141 170 -176 l68 -33 2265 0 2265 0 47 22 c70 33 131 94 164
166 l29 62 0 2265 0 2265 -22 57 c-44 116 -113 187 -216 222 -43 15 -246 16
-2290 15 -1779 0 -2250 -3 -2282 -13z m3410 -1185 c127 -45 231 -150 277 -278
30 -84 29 -269 -2 -368 -58 -183 -193 -365 -350 -472 -58 -39 -193 -106 -245
-122 -109 -31 -260 -29 -371 7 -31 10 -34 7 -133 -92 l-101 -101 495 -495
c272 -272 495 -502 495 -510 0 -16 -189 -210 -205 -210 -6 0 -234 224 -508
498 l-497 497 -497 -497 c-274 -274 -505 -498 -513 -498 -16 0 -210 189 -210
205 0 5 320 330 711 721 l712 712 -18 48 c-26 75 -31 229 -10 317 40 165 126
309 264 440 116 109 272 191 421 221 60 11 226 -1 285 -23z m-1813 -538 c280
-280 508 -515 508 -523 0 -17 -399 -420 -417 -420 -22 0 -666 667 -704 729
-107 176 -111 417 -11 591 34 59 92 130 106 130 6 0 239 -228 518 -507z m-260
-2450 l24 -78 79 -3 c44 -2 84 -7 88 -11 5 -5 -21 -30 -57 -56 -36 -26 -66
-52 -66 -59 0 -7 9 -39 20 -71 35 -101 28 -104 -65 -34 l-56 42 -55 -39 c-30
-21 -62 -43 -69 -49 -26 -18 -27 4 -3 79 l24 76 -20 18 c-12 11 -43 34 -69 52
-27 18 -45 36 -40 41 4 4 44 9 88 11 l80 3 18 55 c24 76 35 100 46 100 5 0 20
-35 33 -77z m499 0 l25 -78 80 -3 c43 -2 83 -7 87 -11 5 -5 -19 -28 -53 -51
-34 -23 -64 -48 -66 -55 -3 -8 5 -45 17 -84 13 -39 20 -74 16 -77 -4 -4 -32
10 -63 32 -30 21 -61 43 -68 48 -9 6 -32 -5 -74 -37 -89 -69 -97 -64 -62 38
11 32 20 64 20 71 0 7 -30 34 -66 60 -36 26 -62 50 -57 55 4 4 44 9 87 11 l80
3 25 78 c14 42 30 77 36 77 6 0 22 -35 36 -77z m490 0 l25 -78 80 -3 c43 -2
83 -7 87 -11 5 -5 -21 -29 -57 -55 -36 -26 -66 -53 -66 -60 0 -7 9 -39 20 -71
35 -101 28 -104 -65 -34 l-56 42 -55 -39 c-30 -21 -62 -43 -69 -49 -27 -18
-29 6 -6 76 12 39 20 76 17 84 -2 7 -32 32 -66 55 -34 23 -58 46 -53 51 4 4
44 9 87 11 l80 3 25 78 c14 42 30 77 36 77 6 0 22 -35 36 -77z m500 0 l25 -78
80 -3 c43 -2 83 -7 87 -11 5 -5 -19 -28 -53 -51 -34 -23 -64 -48 -66 -55 -3
-8 5 -45 17 -84 13 -39 20 -74 16 -77 -4 -4 -32 10 -63 32 -30 21 -61 43 -68
48 -8 6 -33 -6 -76 -38 -35 -25 -68 -46 -72 -46 -13 0 -9 23 12 85 11 32 20
64 20 71 0 7 -30 34 -66 60 -36 26 -62 50 -57 55 4 4 44 9 87 11 l80 3 25 78
c14 42 30 77 36 77 6 0 22 -35 36 -77z m490 0 l25 -78 80 -3 c43 -2 83 -7 87
-11 5 -5 -21 -29 -57 -55 -36 -26 -66 -53 -66 -60 0 -7 9 -39 20 -71 21 -62
25 -85 12 -85 -4 0 -36 21 -71 46 l-63 46 -55 -39 c-30 -21 -61 -42 -68 -48
-27 -18 -29 6 -6 76 12 39 20 76 17 84 -2 7 -32 32 -66 55 -34 23 -58 46 -53
51 4 4 44 9 87 11 l80 3 25 78 c14 42 30 77 36 77 6 0 22 -35 36 -77z"/>
</g>
</svg>
